<?xml version="1.0" encoding="UTF-8"?>
<!DOCTYPE svg PUBLIC "-//W3C//DTD SVG 1.1//EN" "http://www.w3.org/Graphics/SVG/1.1/DTD/svg11.dtd">
<!-- Creator: CorelDRAW -->
<svg xmlns="http://www.w3.org/2000/svg" xml:space="preserve" width="6.82666in" height="6.82666in" style="shape-rendering:geometricPrecision; text-rendering:geometricPrecision; image-rendering:optimizeQuality; fill-rule:evenodd; clip-rule:evenodd"
viewBox="0 0 6.82666 6.82666"
 xmlns:xlink="http://www.w3.org/1999/xlink"
 version="1.1">
 <defs>
  <style type="text/css">
   <![CDATA[
    .fil4 {fill:none}
    .fil0 {fill:#00A79D}
    .fil1 {fill:#4AC0B3}
    .fil2 {fill:#C7D3D8}
    .fil3 {fill:#EDEFF0}
   ]]>
  </style>
 </defs>
 <g id="Layer_x0020_1">
  <metadata id="CorelCorpID_0Corel-Layer"/>
  <g id="_686982792">
   <g id="Guides">
   </g>
   <g id="Layer_2">
   </g>
   <g id="Layer_3">
   </g>
   <g id="Layer_4">
   </g>
   <g id="Layer_5">
   </g>
   <g id="Layer_6">
   </g>
   <g id="Layer_7">
   </g>
   <g id="Layer_8">
   </g>
   <g id="Layer_9">
   </g>
   <g id="Layer_10">
   </g>
   <g id="Layer_11">
   </g>
   <g id="Layer_12">
   </g>
   <g id="Layer_13">
   </g>
   <g id="Layer_14">
   </g>
   <g id="Layer_15">
    <g>
     <g>
      <g>
       <g>
        <path id="_686986392" class="fil0" d="M5.59416 2.13528c-0.310732,-0.0469685 -0.788598,-0.223665 -0.932831,-0.278701 -0.0283346,-0.0107992 -0.0562992,-0.0225669 -0.0837323,-0.0354685 -0.162634,-0.0763346 -0.307933,-0.159165 -0.436134,-0.242465 -0.130098,-0.0850669 -0.243366,-0.170634 -0.339433,-0.250299 -0.237965,-0.198665 -0.368031,-0.363134 -0.388799,-0.388465l0 0c-0.0207323,0.0253346 -0.152795,0.189799 -0.390764,0.388465 -0.0960669,0.0796654 -0.209335,0.165232 -0.339433,0.250299 -0.131433,0.0854016 -0.280866,0.170299 -0.4485,0.248232 -0.0185669,0.00863386 -0.0374016,0.0166339 -0.0565,0.024 -0.122768,0.0472323 -0.625232,0.235665 -0.947701,0.284402 -0.0409685,0.425402 0.0687677,1.02563 0.0687677,1.02563 0.383134,1.86976 2.0473,2.69523 2.11313,2.72586 0.000799213,-0.000366142 -0.000799213,-0.000366142 0,0 0.0658346,-0.0306339 1.73,-0.856067 2.11313,-2.72586 3.93701e-005,-3.93701e-006 0.116004,-0.623335 0.0688031,-1.02563z"/>
       </g>
       <g>
        <path id="_686985696" class="fil1" d="M5.23496 2.34575c-0.255465,-0.0385984 -0.646201,-0.182201 -0.773335,-0.230567 -0.0277008,-0.0105315 -0.0550315,-0.0220315 -0.0818346,-0.0347008 -0.133433,-0.063 -0.252835,-0.131165 -0.358366,-0.199732 -0.108701,-0.0710669 -0.203299,-0.142531 -0.283567,-0.209098 -0.198799,-0.165969 -0.308299,-0.304335 -0.325634,-0.325465l0 0c-0.0173346,0.0211654 -0.126795,0.1595 -0.325594,0.325465 -0.0802323,0.0665315 -0.174866,0.138031 -0.283567,0.209098 -0.107567,0.0699016 -0.229531,0.139366 -0.366098,0.203366 -0.0211339,0.00990157 -0.0426339,0.0190315 -0.0644331,0.0273661 -0.115701,0.0442677 -0.520665,0.194634 -0.783031,0.234268 -0.0309016,0.360732 0.0574685,0.856768 0.0574685,0.856768 0.320067,1.56196 1.71026,2.25196 1.76526,2.27756l0 0c0.0549685,-0.0255669 1.4452,-0.715598 1.76526,-2.27756 0,3.14961e-005 0.0882323,-0.502 0.0574685,-0.856768z"/>
       </g>
      </g>
     </g>
     <g>
      <rect id="_686985936" class="fil2" x="1.01333" y="2.88188" width="4.79999" height="1.48363"/>
     </g>
     <g>
      <rect id="_686985888" class="fil3" x="1.2212" y="3.10278" width="4.38426" height="1.04183"/>
     </g>
     <g>
      <g>
       <g>
        <path id="_686985840" class="fil0" d="M1.9018 3.80444c-0.0127992,0 -0.0255669,-0.00486614 -0.0353346,-0.0146339 -0.0195315,-0.0195 -0.0195669,-0.0511654 -6.69291e-005,-0.0707008l0.261098 -0.261465c0.0195315,-0.0195315 0.0511654,-0.0195669 0.0707008,-6.69291e-005 0.0195315,0.0195 0.0195669,0.0511654 6.69291e-005,0.0707008l-0.261098 0.261465c-0.00973228,0.00979921 -0.0225354,0.0147008 -0.0353661,0.0147008z"/>
       </g>
       <g>
        <path id="_686986032" class="fil0" d="M2.1629 3.80444c-0.0127992,0 -0.0255984,-0.00490157 -0.0353661,-0.0146654l-0.261098 -0.261465c-0.0195,-0.0195315 -0.0195,-0.0512008 6.69291e-005,-0.0707008 0.0195315,-0.0195 0.0512008,-0.0195 0.0707008,6.69291e-005l0.261098 0.261465c0.0195,0.0195315 0.0195,0.0512008 -6.69291e-005,0.0707008 -0.00976772,0.00969685 -0.0225354,0.0145984 -0.0353346,0.0145984z"/>
       </g>
      </g>
      <g>
       <g>
        <path id="_686985192" class="fil0" d="M2.5923 3.80444c-0.0127992,0 -0.0255669,-0.00486614 -0.0353346,-0.0146339 -0.0195315,-0.0195 -0.0195669,-0.0511654 -6.69291e-005,-0.0707008l0.261098 -0.261465c0.0195315,-0.0195315 0.0511654,-0.0195669 0.0707008,-6.69291e-005 0.0195315,0.0195 0.0195669,0.0511654 6.69291e-005,0.0707008l-0.261098 0.261465c-0.00973228,0.00979921 -0.0225669,0.0147008 -0.0353661,0.0147008z"/>
       </g>
       <g>
        <path id="_686984976" class="fil0" d="M2.8534 3.80444c-0.0127992,0 -0.0255984,-0.00490157 -0.0353661,-0.0146654l-0.261098 -0.261465c-0.0195,-0.0195315 -0.0195,-0.0512008 6.69291e-005,-0.0707008 0.0195315,-0.0195 0.0512008,-0.0195 0.0707008,6.69291e-005l0.261098 0.261465c0.0195,0.0195315 0.0195,0.0512008 -6.69291e-005,0.0707008 -0.00976772,0.00969685 -0.0225669,0.0145984 -0.0353346,0.0145984z"/>
       </g>
      </g>
      <g>
       <g>
        <path id="_686985528" class="fil0" d="M3.2828 3.80444c-0.0127992,0 -0.0255669,-0.00486614 -0.0353346,-0.0146339 -0.0195315,-0.0195 -0.0195669,-0.0511654 -6.69291e-005,-0.0707008l0.261094 -0.261465c0.0195315,-0.0195315 0.0511654,-0.0195669 0.0707008,-6.69291e-005 0.0195315,0.0195 0.0195669,0.0511654 6.69291e-005,0.0707008l-0.261094 0.261465c-0.00976772,0.00979921 -0.0225669,0.0147008 -0.0353661,0.0147008z"/>
       </g>
       <g>
        <path id="_686984952" class="fil0" d="M3.54386 3.80444c-0.0127992,0 -0.0255984,-0.00490157 -0.0353661,-0.0146654l-0.261094 -0.261465c-0.0195,-0.0195315 -0.0195,-0.0512008 6.69291e-005,-0.0707008 0.0195315,-0.0195 0.0512008,-0.0195 0.0707008,6.69291e-005l0.261094 0.261465c0.0195,0.0195315 0.0195,0.0512008 -6.69291e-005,0.0707008 -0.00976772,0.00969685 -0.0225315,0.0145984 -0.0353346,0.0145984z"/>
       </g>
      </g>
      <g>
       <g>
        <path id="_686985408" class="fil0" d="M3.97326 3.80444c-0.0127992,0 -0.0255669,-0.00486614 -0.0353346,-0.0146339 -0.0195315,-0.0195 -0.0195669,-0.0511654 -6.69291e-005,-0.0707008l0.261098 -0.261465c0.0195315,-0.0195315 0.0511654,-0.0195669 0.0707008,-6.69291e-005 0.0195315,0.0195 0.0195669,0.0511654 6.69291e-005,0.0707008l-0.261098 0.261465c-0.00973228,0.00979921 -0.0225315,0.0147008 -0.0353661,0.0147008z"/>
       </g>
       <g>
        <path id="_686985600" class="fil0" d="M4.23436 3.80444c-0.0127992,0 -0.0255984,-0.00490157 -0.0353661,-0.0146654l-0.261098 -0.261465c-0.0195,-0.0195315 -0.0195,-0.0512008 6.69291e-005,-0.0707008 0.0195315,-0.0195 0.0512008,-0.0195 0.0707008,6.69291e-005l0.261098 0.261465c0.0195,0.0195315 0.0195,0.0512008 -6.69291e-005,0.0707008 -0.00976772,0.00969685 -0.0225669,0.0145984 -0.0353346,0.0145984z"/>
       </g>
      </g>
      <g>
       <g>
        <path id="_686985672" class="fil0" d="M4.66376 3.80444c-0.0127992,0 -0.0255669,-0.00486614 -0.0353346,-0.0146339 -0.0195315,-0.0195 -0.0195669,-0.0511654 -6.69291e-005,-0.0707008l0.261098 -0.261465c0.0195,-0.0195315 0.0511654,-0.0195669 0.0707008,-6.69291e-005 0.0195315,0.0195 0.0195669,0.0511654 6.69291e-005,0.0707008l-0.261098 0.261465c-0.00976772,0.00979921 -0.0225669,0.0147008 -0.0353661,0.0147008z"/>
       </g>
       <g>
        <path id="_686984520" class="fil0" d="M4.92486 3.80444c-0.0127992,0 -0.0255984,-0.00490157 -0.0353661,-0.0146654l-0.261098 -0.261465c-0.0195,-0.0195315 -0.0195,-0.0512008 6.69291e-005,-0.0707008 0.0195315,-0.0195 0.0512008,-0.0195 0.0707008,6.69291e-005l0.261098 0.261465c0.0195,0.0195315 0.0195,0.0512008 -6.69291e-005,0.0707008 -0.00976772,0.00969685 -0.0225669,0.0145984 -0.0353346,0.0145984z"/>
       </g>
      </g>
     </g>
    </g>
   </g>
   <g id="Layer_16">
   </g>
   <g id="Layer_17">
   </g>
   <g id="Layer_18">
   </g>
   <g id="Layer_19">
   </g>
   <g id="Layer_20">
   </g>
   <g id="Layer_21">
   </g>
   <g id="Layer_22">
   </g>
   <g id="Layer_23">
   </g>
   <g id="Layer_24">
   </g>
   <g id="Layer_25">
   </g>
   <g id="Layer_26">
   </g>
  </g>
 </g>
 <rect class="fil4" width="6.82666" height="6.82666"/>
</svg>
