<?xml version="1.0" encoding="utf-8"?>
<!-- Generator: Adobe Illustrator 24.0.0, SVG Export Plug-In . SVG Version: 6.00 Build 0)  -->
<svg version="1.1" xmlns="http://www.w3.org/2000/svg" xmlns:xlink="http://www.w3.org/1999/xlink" x="0px" y="0px"
	 viewBox="0 0 64 64" enable-background="new 0 0 64 64" xml:space="preserve">
<g id="Captions">
</g>
<g id="Icons">
	<g>
		<g>
			<g>
				<path fill="#FAB400" d="M31.414,42.586c-0.781-0.781-2.047-0.781-2.828,0l-7.419,7.419C21.112,50.002,21.056,50,21,50H11
					c-1.657,0-3,1.343-3,3v7h16v-7c0-0.056-0.002-0.112-0.005-0.167l7.419-7.419C32.195,44.633,32.195,43.367,31.414,42.586z"/>
				<g>
					<path fill="#00A0C8" d="M12,50c0,2.209,1.791,4,4,4s4-1.791,4-4H12z"/>
				</g>
				<g>
					<path fill="#D2AA82" d="M16,52L16,52c-1.105,0-2-0.895-2-2v-3h4v3C18,51.105,17.105,52,16,52z"/>
				</g>
				<g>
					<path fill="#F0C8A0" d="M17,48h-2c-1.657,0-3-1.343-3-3v-3c0-1.105,0.895-2,2-2h4c1.105,0,2,0.895,2,2v3
						C20,46.657,18.657,48,17,48z"/>
				</g>
				<g>
					<path fill="#0A5078" d="M18,40h-4c-1.105,0-2,0.895-2,2v0v-2c0-1.105,0.895-2,2-2h4c1.105,0,2,0.895,2,2v2v0
						C20,40.895,19.105,40,18,40z"/>
				</g>
			</g>
			<g>
				<path fill="#00A0C8" d="M53,50H43c-0.056,0-0.112,0.002-0.167,0.005l-7.419-7.419c-0.781-0.781-2.047-0.781-2.828,0
					c-0.781,0.781-0.781,2.047,0,2.828l7.419,7.419C40.002,52.888,40,52.944,40,53v7h16v-7C56,51.343,54.657,50,53,50z"/>
				<g>
					<path fill="#0A5078" d="M44,50c0,2.209,1.791,4,4,4s4-1.791,4-4H44z"/>
				</g>
				<g>
					<path fill="#D2AA82" d="M48,52L48,52c-1.105,0-2-0.895-2-2v-3h4v3C50,51.105,49.105,52,48,52z"/>
				</g>
				<g>
					<path fill="#F0C8A0" d="M49,48h-2c-1.657,0-3-1.343-3-3v-3c0-1.105,0.895-2,2-2h4c1.105,0,2,0.895,2,2v3
						C52,46.657,50.657,48,49,48z"/>
				</g>
				<g>
					<path fill="#DC9600" d="M50,40h-4c-1.105,0-2,0.895-2,2v0v-2c0-1.105,0.895-2,2-2h4c1.105,0,2,0.895,2,2v2v0
						C52,40.895,51.105,40,50,40z"/>
				</g>
			</g>
		</g>
		<g>
			<path fill="#F0C8A0" d="M29.414,46h1.172C31.367,46,32,45.367,32,44.586v-5.172C32,38.633,31.367,38,30.586,38h-1.172
				C28.633,38,28,38.633,28,39.414v5.172C28,45.367,28.633,46,29.414,46z"/>
		</g>
		<g>
			<path fill="#D2AA82" d="M33.414,46h1.172C35.367,46,36,45.367,36,44.586v-5.172C36,38.633,35.367,38,34.586,38h-1.172
				C32.633,38,32,38.633,32,39.414v5.172C32,45.367,32.633,46,33.414,46z"/>
		</g>
		<g>
			<path fill="#0A5078" d="M20,28h-8c-4.411,0-8-3.589-8-8s3.589-8,8-8h8c4.411,0,8,3.589,8,8S24.411,28,20,28z M12,16
				c-2.206,0-4,1.794-4,4s1.794,4,4,4h8c2.206,0,4-1.794,4-4s-1.794-4-4-4H12z"/>
		</g>
		<g>
			<path fill="#0A5078" d="M52,28h-8c-4.411,0-8-3.589-8-8s3.589-8,8-8h8c4.411,0,8,3.589,8,8S56.411,28,52,28z M44,16
				c-2.206,0-4,1.794-4,4s1.794,4,4,4h8c2.206,0,4-1.794,4-4s-1.794-4-4-4H44z"/>
		</g>
		<g>
			<g>
				<path fill="#00325A" d="M28,20c0-0.339-0.021-0.672-0.062-1h-4.064C23.956,19.32,24,19.655,24,20c0,1.194-0.526,2.266-1.357,3
					h4.773C27.792,22.073,28,21.06,28,20z"/>
			</g>
			<g>
				<path fill="#00325A" d="M40,20c0-0.345,0.044-0.68,0.127-1h-4.064C36.021,19.328,36,19.661,36,20c0,1.06,0.208,2.073,0.584,3
					h4.773C40.526,22.266,40,21.194,40,20z"/>
			</g>
		</g>
		<g>
			<path fill="#00A0C8" d="M42,22H22c-1.104,0-2-0.896-2-2s0.896-2,2-2h20c1.104,0,2,0.896,2,2S43.104,22,42,22z"/>
		</g>
		<g>
			<path fill="#FAB400" d="M32,9c-0.553,0-1-0.448-1-1V6c0-0.552,0.447-1,1-1s1,0.448,1,1v2C33,8.552,32.553,9,32,9z"/>
		</g>
		<g>
			<path fill="#FAB400" d="M39,10c-0.256,0-0.512-0.098-0.707-0.293c-0.391-0.391-0.391-1.023,0-1.414l2-2
				c0.391-0.391,1.023-0.391,1.414,0s0.391,1.023,0,1.414l-2,2C39.512,9.902,39.256,10,39,10z"/>
		</g>
		<g>
			<path fill="#FAB400" d="M25,10c-0.256,0-0.512-0.098-0.707-0.293l-2-2c-0.391-0.391-0.391-1.023,0-1.414s1.023-0.391,1.414,0l2,2
				c0.391,0.391,0.391,1.023,0,1.414C25.512,9.902,25.256,10,25,10z"/>
		</g>
		<g>
			<path fill="#FAB400" d="M32,35c-0.553,0-1-0.448-1-1v-2c0-0.552,0.447-1,1-1s1,0.448,1,1v2C33,34.552,32.553,35,32,35z"/>
		</g>
		<g>
			<path fill="#FAB400" d="M41,34c-0.256,0-0.512-0.098-0.707-0.293l-2-2c-0.391-0.391-0.391-1.023,0-1.414s1.023-0.391,1.414,0l2,2
				c0.391,0.391,0.391,1.023,0,1.414C41.512,33.902,41.256,34,41,34z"/>
		</g>
		<g>
			<path fill="#FAB400" d="M23,34c-0.256,0-0.512-0.098-0.707-0.293c-0.391-0.391-0.391-1.023,0-1.414l2-2
				c0.391-0.391,1.023-0.391,1.414,0s0.391,1.023,0,1.414l-2,2C23.512,33.902,23.256,34,23,34z"/>
		</g>
	</g>
</g>
</svg>
